# Blender 5.2.0 LTS
# www.blender.org
mtllib candle_flame.mtl
o mesh_8.005
v -0.007662 0.004694 0.007997
v -0.001573 0.104230 0.002339
v -0.007100 0.004626 -0.006808
v -0.001316 0.104159 -0.003885
v 0.007140 0.004696 0.008558
v 0.004657 0.104240 0.002560
v 0.007703 0.004624 -0.006247
v 0.004920 0.104175 -0.003677
v -0.009824 0.027159 0.010001
v -0.009075 0.027038 -0.009504
v 0.010414 0.027023 -0.008760
v 0.009642 0.027153 0.010742
v -0.007743 0.060126 0.008063
v -0.007028 0.059896 -0.009489
v 0.010532 0.059845 -0.008863
v 0.009713 0.060090 0.008723
v -0.004644 0.087291 0.005183
v -0.004134 0.087120 -0.007134
v 0.008231 0.087110 -0.006738
v 0.007652 0.087282 0.005628
v -0.008297 0.003609 -0.003832
v -0.009007 0.003111 0.000539
v -0.009007 0.003111 0.000539
v -0.008630 0.003649 0.004948
v -0.003819 0.093019 0.004419
v -0.003001 0.098015 0.003662
v -0.002209 0.101895 0.002928
v -0.001925 0.105069 0.001044
v -0.002042 0.105469 -0.000785
v -0.002042 0.105469 -0.000785
v -0.001772 0.105025 -0.002606
v -0.009245 0.019380 -0.009393
v -0.009005 0.012735 -0.008975
v -0.008176 0.007629 -0.008003
v 0.004727 0.003589 -0.007434
v 0.000356 0.003069 -0.008140
v -0.004052 0.003590 -0.007768
v -0.000022 0.105012 -0.004227
v 0.001806 0.105438 -0.004350
v 0.001806 0.105438 -0.004350
v 0.001806 0.105438 -0.004350
v 0.003632 0.105022 -0.004106
v 0.010294 0.019372 -0.008648
v 0.009872 0.012730 -0.008257
v 0.008898 0.007626 -0.007354
v 0.008328 0.003649 0.005591
v 0.009033 0.003111 0.001224
v 0.009033 0.003111 0.001224
v 0.009033 0.003111 0.001224
v 0.008661 0.003607 -0.003189
v 0.005251 0.105043 -0.002362
v 0.005357 0.105485 -0.000522
v 0.005357 0.105485 -0.000522
v 0.005357 0.105485 -0.000522
v 0.005097 0.105081 0.001294
v 0.009537 0.019483 0.010898
v 0.009149 0.012827 0.010623
v 0.008247 0.007710 0.009722
v -0.004696 0.003669 0.009193
v -0.000329 0.003154 0.009903
v -0.000329 0.003154 0.009903
v -0.000329 0.003154 0.009903
v 0.004083 0.003669 0.009526
v 0.003345 0.105095 0.002917
v 0.001506 0.105517 0.003046
v -0.000310 0.105090 0.002788
v -0.008825 0.007709 0.009075
v -0.009723 0.012827 0.009908
v -0.009991 0.019484 0.010156
v -0.007657 0.051881 -0.009679
v -0.008232 0.043564 -0.009684
v -0.008718 0.035199 -0.009592
v 0.010680 0.051829 -0.009001
v 0.010645 0.043522 -0.008970
v 0.010521 0.035172 -0.008858
v 0.009853 0.052062 0.009366
v 0.009832 0.043723 0.009934
v 0.009731 0.035334 0.010402
v 0.005119 0.027173 0.013319
v -0.000232 0.027181 0.014030
v -0.005513 0.027176 0.012915
v 0.012986 0.027050 -0.004227
v 0.013687 0.027085 0.001135
v 0.012562 0.027122 0.006425
v -0.004546 0.027017 -0.012086
v 0.000812 0.027008 -0.012797
v 0.006100 0.027009 -0.011679
v -0.012399 0.027133 0.005473
v -0.013108 0.027100 0.000112
v -0.013108 0.027100 0.000112
v -0.011991 0.027067 -0.005182
v -0.009467 0.035350 0.009669
v -0.008978 0.043751 0.009214
v -0.008394 0.052097 0.008669
v -0.004890 0.080959 -0.007902
v -0.005634 0.074407 -0.008572
v -0.006350 0.067404 -0.009111
v 0.009003 0.080936 -0.007451
v 0.009666 0.074371 -0.008062
v 0.010186 0.067358 -0.008543
v 0.008342 0.081138 0.006449
v 0.008934 0.074598 0.007249
v 0.009399 0.067601 0.008013
v 0.005619 0.060134 0.011054
v 0.000842 0.060153 0.011692
v -0.003866 0.060151 0.010695
v 0.012843 0.059891 -0.004740
v 0.013434 0.059955 0.000079
v 0.012383 0.060025 0.004822
v -0.002923 0.059850 -0.011856
v 0.001886 0.059824 -0.012518
v 0.006630 0.059821 -0.011522
v -0.010060 0.060078 0.003977
v -0.010686 0.060017 -0.000820
v -0.010686 0.060017 -0.000820
v -0.009677 0.059955 -0.005564
v -0.007030 0.067633 0.007398
v -0.006265 0.074623 0.006687
v -0.005464 0.081155 0.005944
v -0.001900 0.101806 -0.004567
v -0.002627 0.097900 -0.005424
v -0.003376 0.092876 -0.006296
v 0.005616 0.101820 -0.004320
v 0.006491 0.097909 -0.005130
v 0.007381 0.092877 -0.005952
v 0.005291 0.101903 0.003195
v 0.006084 0.098019 0.003987
v 0.006888 0.093018 0.004804
v 0.004749 0.087307 0.007285
v 0.001399 0.087315 0.007738
v -0.001900 0.087311 0.007044
v 0.009877 0.087143 -0.003823
v 0.010293 0.087187 -0.000451
v 0.009552 0.087237 0.002868
v -0.001232 0.087091 -0.008821
v 0.002136 0.087079 -0.009301
v 0.005462 0.087086 -0.008616
v -0.006286 0.087250 0.002301
v -0.006723 0.087201 -0.001047
v -0.006723 0.087201 -0.001047
v -0.006012 0.087157 -0.004360
v -0.005251 0.092990 0.001906
v -0.004203 0.098043 0.001530
v -0.003131 0.102095 0.001188
v -0.005629 0.092956 -0.001003
v -0.005629 0.092956 -0.001003
v -0.004512 0.098067 -0.000936
v -0.004512 0.098067 -0.000936
v -0.003348 0.102267 -0.000861
v -0.003348 0.102267 -0.000861
v -0.005012 0.092912 -0.003880
v -0.004000 0.097980 -0.003376
v -0.002962 0.102045 -0.002893
v -0.000849 0.092861 -0.007763
v -0.000485 0.097943 -0.006651
v -0.000156 0.102021 -0.005502
v 0.002076 0.092860 -0.008179
v 0.001992 0.097997 -0.006989
v 0.001899 0.102218 -0.005736
v 0.004966 0.092862 -0.007586
v 0.004443 0.097947 -0.006498
v 0.003938 0.102028 -0.005373
v 0.008817 0.092912 -0.003414
v 0.007696 0.097990 -0.002980
v 0.006537 0.102062 -0.002567
v 0.009181 0.092955 -0.000486
v 0.007996 0.098076 -0.000499
v 0.006745 0.102282 -0.000506
v 0.008541 0.092989 0.002398
v 0.007470 0.098050 0.001945
v 0.006356 0.102108 0.001526
v 0.004357 0.093043 0.006249
v 0.003939 0.098090 0.005199
v 0.003539 0.102134 0.004127
v 0.001444 0.093055 0.006642
v 0.001467 0.098150 0.005522
v 0.001483 0.102332 0.004355
v -0.001425 0.093044 0.006040
v -0.000968 0.098088 0.005024
v -0.000544 0.102130 0.003982
v -0.004491 0.001402 -0.003967
v 0.000192 0.000654 -0.004038
v 0.000192 0.000654 -0.004038
v 0.004861 0.001401 -0.003612
v -0.004922 0.000677 0.000703
v -0.004922 0.000677 0.000703
v 0.000002 -0.000137 0.000892
v 0.000002 -0.000137 0.000892
v 0.000002 -0.000137 0.000892
v 0.000002 -0.000137 0.000892
v 0.004931 0.000677 0.001077
v 0.004931 0.000677 0.001077
v -0.004846 0.001445 0.005387
v -0.000182 0.000700 0.005817
v -0.000182 0.000700 0.005817
v 0.004506 0.001445 0.005741
v 0.003658 0.106908 -0.002510
v 0.001713 0.107594 -0.002676
v 0.001713 0.107594 -0.002676
v -0.000222 0.106897 -0.002645
v 0.003677 0.107622 -0.000560
v 0.003677 0.107622 -0.000560
v 0.001621 0.108430 -0.000625
v 0.001621 0.108430 -0.000625
v 0.001621 0.108430 -0.000625
v 0.001621 0.108430 -0.000625
v -0.000416 0.107614 -0.000706
v -0.000416 0.107614 -0.000706
v 0.003502 0.106949 0.001372
v 0.001549 0.107642 0.001416
v 0.001549 0.107642 0.001416
v -0.000383 0.106943 0.001234
v 0.004330 0.007436 0.011903
v 0.004767 0.012765 0.013124
v 0.005003 0.019490 0.013480
v -0.000410 0.007189 0.012512
v -0.000424 0.012693 0.013817
v -0.000367 0.019486 0.014194
v -0.005087 0.007435 0.011547
v -0.005546 0.012765 0.012733
v -0.005668 0.019490 0.013075
v 0.011075 0.007358 -0.003436
v 0.012369 0.012675 -0.003874
v 0.012874 0.019386 -0.004110
v 0.011680 0.007131 0.001305
v 0.013059 0.012625 0.001320
v 0.013582 0.019407 0.001266
v 0.010716 0.007405 0.005984
v 0.011974 0.012728 0.006444
v 0.012459 0.019447 0.006572
v -0.004262 0.007332 -0.010181
v -0.004624 0.012645 -0.011475
v -0.004709 0.019355 -0.011978
v 0.000476 0.007078 -0.010787
v 0.000568 0.012563 -0.012166
v 0.000665 0.019338 -0.012691
v 0.005157 0.007330 -0.009823
v 0.005692 0.012642 -0.011082
v 0.005969 0.019350 -0.011570
v -0.011006 0.007405 0.005160
v -0.012222 0.012730 0.005526
v -0.012572 0.019451 0.005619
v -0.011614 0.007133 0.000421
v -0.011614 0.007133 0.000421
v -0.012915 0.012628 0.000333
v -0.012915 0.012628 0.000333
v -0.013285 0.019414 0.000243
v -0.013285 0.019414 0.000243
v -0.010648 0.007361 -0.004261
v -0.011830 0.012680 -0.004794
v -0.012165 0.019397 -0.005065
v 0.005263 0.035361 0.012948
v 0.005443 0.043759 0.012434
v 0.005585 0.052104 0.011797
v -0.000010 0.035372 0.013648
v 0.000283 0.043774 0.013120
v 0.000585 0.052123 0.012463
v -0.005212 0.035368 0.012549
v -0.004806 0.043772 0.012042
v -0.004344 0.052121 0.011419
v 0.013058 0.035205 -0.004374
v 0.013130 0.043562 -0.004558
v 0.013092 0.051874 -0.004703
v 0.013741 0.035248 0.000919
v 0.013788 0.043615 0.000632
v 0.013719 0.051935 0.000335
v 0.012621 0.035294 0.006138
v 0.012679 0.043672 0.005746
v 0.012630 0.052001 0.005295
v -0.004241 0.035171 -0.012148
v -0.003832 0.043526 -0.012203
v -0.003376 0.051836 -0.012138
v 0.001045 0.035156 -0.012852
v 0.001350 0.043506 -0.012898
v 0.001653 0.051812 -0.012820
v 0.006260 0.035156 -0.011748
v 0.006461 0.043504 -0.011816
v 0.006611 0.051808 -0.011773
v -0.012008 0.035318 0.005195
v -0.011471 0.043712 0.004821
v -0.010815 0.052053 0.004401
v -0.012706 0.035278 -0.000094
v -0.012706 0.035278 -0.000094
v -0.012152 0.043664 -0.000361
v -0.012152 0.043664 -0.000361
v -0.011472 0.051996 -0.000621
v -0.011472 0.051996 -0.000621
v -0.011603 0.035237 -0.005317
v -0.011069 0.043612 -0.005480
v -0.010419 0.051937 -0.005586
v 0.005539 0.067643 0.010211
v 0.005356 0.074635 0.009287
v 0.005087 0.081169 0.008304
v 0.001046 0.067661 0.010813
v 0.001204 0.074650 0.009845
v 0.001320 0.081182 0.008812
v -0.003378 0.067658 0.009877
v -0.002884 0.074647 0.008982
v -0.002389 0.081178 0.008030
v 0.012365 0.067405 -0.004655
v 0.011687 0.074415 -0.004462
v 0.010844 0.080975 -0.004178
v 0.012917 0.067467 -0.000123
v 0.012197 0.074473 -0.000275
v 0.011309 0.081027 -0.000383
v 0.011923 0.067537 0.004337
v 0.011275 0.074538 0.003844
v 0.010474 0.081085 0.003353
v -0.002481 0.067359 -0.011349
v -0.002051 0.074366 -0.010649
v -0.001634 0.080924 -0.009793
v 0.002042 0.067335 -0.011980
v 0.002128 0.074344 -0.011238
v 0.002156 0.080907 -0.010332
v 0.006505 0.067334 -0.011049
v 0.006254 0.074346 -0.010383
v 0.005899 0.080911 -0.009559
v -0.009212 0.067583 0.003552
v -0.008286 0.074574 0.003128
v -0.007304 0.081110 0.002710
v -0.009799 0.067522 -0.000953
v -0.009799 0.067522 -0.000953
v -0.008828 0.074516 -0.001030
v -0.008828 0.074516 -0.001030
v -0.007795 0.081055 -0.001058
v -0.007795 0.081055 -0.001058
v -0.008849 0.067461 -0.005410
v -0.007948 0.074458 -0.005145
v -0.006996 0.081004 -0.004787
vn -0.9293 0.2020 0.3092
vn -0.9210 0.2406 0.3064
vn -0.9698 0.2403 -0.0413
vn -0.9789 0.1999 -0.0415
vn -0.9009 0.3150 0.2984
vn -0.9447 0.3252 -0.0423
vn -0.9788 0.2002 -0.0438
vn -0.9696 0.2409 -0.0442
vn -0.8908 0.2434 -0.3837
vn -0.8995 0.2028 -0.3869
vn -0.9437 0.3277 -0.0446
vn -0.8699 0.3198 -0.3755
vn -0.7225 0.1858 0.6659
vn -0.7196 0.2049 0.6634
vn -0.9330 0.1823 0.3103
vn -0.7135 0.2419 0.6576
vn -0.6998 0.3075 0.6448
vn -0.6720 0.4013 0.6224
vn -0.8055 0.4802 0.3473
vn -0.8586 0.5107 -0.0439
vn -0.8569 0.5136 -0.0431
vn -0.7712 0.4808 -0.4172
vn -0.6217 0.4148 -0.6644
vn -0.6452 0.3154 -0.6959
vn -0.6588 0.2485 -0.7101
vn -0.6658 0.2073 -0.7167
vn -0.9037 0.1802 -0.3883
vn -0.6694 0.1821 -0.7202
vn -0.9829 0.1792 -0.0434
vn -0.9829 0.1791 -0.0418
vn -0.3193 0.2075 -0.9246
vn -0.3157 0.2519 -0.9148
vn 0.0298 0.2552 -0.9664
vn 0.0302 0.2080 -0.9777
vn -0.3069 0.3284 -0.8933
vn 0.0299 0.3436 -0.9386
vn 0.3738 0.2589 -0.8906
vn 0.3789 0.2118 -0.9009
vn 0.3639 0.3382 -0.8678
vn -0.3211 0.1794 -0.9299
vn -0.3537 0.4891 -0.7973
vn 0.0260 0.5249 -0.8508
vn 0.4037 0.4972 -0.7680
vn 0.6595 0.4242 -0.6206
vn 0.6900 0.3314 -0.6434
vn 0.7070 0.2617 -0.6571
vn 0.7164 0.2149 -0.6638
vn 0.3821 0.1796 -0.9065
vn 0.7222 0.1819 -0.6674
vn 0.0308 0.1775 -0.9836
vn 0.9272 0.2111 -0.3095
vn 0.9157 0.2588 -0.3076
vn 0.9661 0.2549 0.0412
vn 0.9774 0.2070 0.0433
vn 0.8918 0.3376 -0.3011
vn 0.9380 0.3444 0.0384
vn 0.8889 0.2518 0.3826
vn 0.8982 0.2067 0.3878
vn 0.8674 0.3311 0.3714
vn 0.9338 0.1786 -0.3101
vn 0.7916 0.4990 -0.3527
vn 0.8494 0.5267 0.0344
vn 0.7681 0.4928 0.4089
vn 0.6216 0.4186 0.6621
vn 0.6450 0.3169 0.6954
vn 0.6576 0.2491 0.7110
vn 0.6640 0.2074 0.7184
vn 0.9031 0.1781 0.3908
vn 0.6672 0.1817 0.7224
vn 0.9834 0.1760 0.0449
vn 0.3154 0.2036 0.9268
vn 0.3125 0.2443 0.9180
vn -0.0349 0.2416 0.9697
vn -0.0352 0.2010 0.9790
vn 0.3054 0.3204 0.8967
vn -0.0348 0.3279 0.9441
vn -0.3798 0.2411 0.8931
vn -0.3832 0.2026 0.9012
vn -0.3713 0.3173 0.8726
vn 0.3167 0.1808 0.9311
vn 0.3548 0.4867 0.7983
vn -0.0303 0.5156 0.8563
vn -0.4156 0.4771 0.7743
vn -0.3848 0.1831 0.9047
vn -0.0356 0.1801 0.9830
vn -0.3131 -0.8893 -0.3333
vn 0.0130 -0.9408 -0.3387
vn 0.0001 -1.0000 0.0049
vn -0.3435 -0.9391 -0.0086
vn 0.0124 -0.9409 -0.3385
vn 0.3363 -0.8899 -0.3080
vn 0.3421 -0.9395 0.0179
vn -0.0007 -1.0000 0.0049
vn -0.3434 -0.9391 -0.0089
vn 0.0001 -1.0000 0.0043
vn -0.0128 -0.9377 0.3472
vn -0.3375 -0.8864 0.3167
vn -0.0007 -1.0000 0.0041
vn 0.3421 -0.9395 0.0169
vn 0.3117 -0.8869 0.3408
vn -0.0136 -0.9378 0.3469
vn -0.5471 -0.5969 -0.5869
vn -0.2845 -0.6889 -0.6667
vn -0.6475 -0.6864 -0.3312
vn 0.0260 -0.7246 -0.6887
vn 0.3331 -0.6905 -0.6421
vn 0.5878 -0.6005 -0.5421
vn 0.6679 -0.6896 -0.2801
vn 0.6917 -0.7215 0.0304
vn 0.6918 -0.7215 0.0292
vn 0.6445 -0.6865 0.3366
vn 0.5448 -0.5947 0.5912
vn 0.2834 -0.6840 0.6722
vn -0.0266 -0.7178 0.6957
vn -0.0258 -0.7176 0.6960
vn -0.3341 -0.6827 0.6498
vn -0.6709 -0.6835 0.2875
vn -0.5901 -0.5915 0.5494
vn -0.6938 -0.7198 -0.0231
vn -0.6939 -0.7197 -0.0230
vn 0.5153 0.7057 -0.4862
vn -0.0028 0.8185 -0.5745
vn -0.0344 0.9992 0.0200
vn 0.5652 0.8243 0.0336
vn 0.0362 0.8164 -0.5763
vn -0.4880 0.6939 -0.5294
vn -0.5782 0.8157 -0.0175
vn 0.0227 0.9996 0.0187
vn 0.5709 0.8210 -0.0023
vn -0.0277 0.9990 -0.0355
vn -0.0358 0.8204 0.5707
vn 0.4863 0.7014 0.5212
vn 0.0250 0.9991 -0.0351
vn -0.5763 0.8157 -0.0493
vn -0.5290 0.6985 0.4819
vn -0.0066 0.8215 0.5702
vn 0.0212 0.5261 -0.8502
vn 0.0284 0.5276 -0.8490
vn 0.8466 0.5315 0.0295
vn 0.8464 0.5315 0.0340
vn 0.2988 -0.3747 0.8777
vn 0.3174 -0.1478 0.9367
vn -0.0378 -0.1439 0.9889
vn -0.0352 -0.3915 0.9195
vn 0.3190 -0.0232 0.9475
vn -0.0381 -0.0167 0.9991
vn -0.3886 -0.1416 0.9104
vn -0.3650 -0.3718 0.8536
vn -0.3909 -0.0132 0.9203
vn 0.6331 -0.3596 0.6854
vn 0.6707 -0.1532 0.7257
vn 0.6786 -0.0317 0.7338
vn 0.6788 0.0143 0.7342
vn 0.3186 0.0262 0.9475
vn -0.0385 0.0348 0.9987
vn -0.3906 0.0413 0.9196
vn -0.7333 0.0445 0.6784
vn -0.7337 -0.0123 0.6794
vn -0.7261 -0.1413 0.6730
vn -0.6855 -0.3529 0.6368
vn -0.0267 -0.7184 0.6951
vn 0.8741 -0.3849 -0.2963
vn 0.9344 -0.1644 -0.3159
vn 0.9862 -0.1610 0.0389
vn 0.9153 -0.4011 0.0369
vn 0.9467 -0.0500 -0.3183
vn 0.9982 -0.0448 0.0393
vn 0.9077 -0.1573 0.3890
vn 0.8492 -0.3807 0.3659
vn 0.9194 -0.0390 0.3915
vn 0.6828 -0.3681 -0.6311
vn 0.7240 -0.1666 -0.6694
vn 0.7329 -0.0532 -0.6782
vn 0.7344 -0.0196 -0.6785
vn 0.9483 -0.0163 -0.3170
vn 0.9991 -0.0091 0.0404
vn 0.9199 0.0011 0.3920
vn 0.6892 -0.7240 0.0297
vn -0.2993 -0.3824 -0.8742
vn -0.3181 -0.1588 -0.9347
vn 0.0371 -0.1620 -0.9861
vn 0.0346 -0.4025 -0.9147
vn -0.3203 -0.0405 -0.9465
vn 0.0375 -0.0462 -0.9982
vn 0.3875 -0.1648 -0.9070
vn 0.3637 -0.3857 -0.8479
vn 0.3903 -0.0509 -0.9193
vn -0.6351 -0.3610 -0.6829
vn -0.6723 -0.1541 -0.7241
vn -0.6800 -0.0326 -0.7325
vn -0.6806 0.0131 -0.7326
vn -0.3201 -0.0009 -0.9474
vn 0.0377 -0.0112 -0.9992
vn 0.3907 -0.0175 -0.9204
vn -0.8780 -0.3719 0.3015
vn -0.9371 -0.1418 0.3188
vn -0.9889 -0.1437 -0.0369
vn -0.9193 -0.3921 -0.0330
vn -0.9475 -0.0132 0.3196
vn -0.9991 -0.0163 -0.0380
vn -0.9192 -0.3924 -0.0331
vn -0.9889 -0.1442 -0.0369
vn -0.9100 -0.1479 -0.3872
vn -0.8525 -0.3762 -0.3629
vn -0.9991 -0.0167 -0.0380
vn -0.9205 -0.0232 -0.3900
vn -0.9470 0.0417 0.3184
vn -0.9986 0.0353 -0.0386
vn -0.9986 0.0351 -0.0384
vn -0.9207 0.0261 -0.3895
vn 0.3187 0.0442 0.9468
vn 0.3191 0.0588 0.9459
vn -0.0380 0.0719 0.9967
vn -0.0384 0.0558 0.9977
vn 0.3194 0.0762 0.9445
vn -0.0376 0.0882 0.9954
vn -0.3903 0.0821 0.9170
vn -0.3905 0.0648 0.9183
vn -0.3899 0.0978 0.9156
vn 0.6785 0.0279 0.7341
vn 0.6783 0.0404 0.7337
vn 0.6777 0.0591 0.7330
vn 0.6762 0.0836 0.7319
vn 0.3192 0.0974 0.9427
vn -0.0372 0.1069 0.9936
vn -0.3893 0.1151 0.9139
vn -0.7304 0.1193 0.6725
vn -0.7315 0.1025 0.6740
vn -0.7322 0.0871 0.6755
vn -0.7327 0.0692 0.6770
vn 0.9488 -0.0145 -0.3156
vn 0.9494 -0.0081 -0.3140
vn 0.9990 0.0029 0.0437
vn 0.9991 -0.0048 0.0420
vn 0.9498 0.0135 -0.3126
vn 0.9987 0.0233 0.0454
vn 0.9189 0.0193 0.3941
vn 0.9195 0.0096 0.3930
vn 0.9179 0.0390 0.3950
vn 0.7352 -0.0189 -0.6776
vn 0.7363 -0.0128 -0.6766
vn 0.7370 0.0098 -0.6758
vn 0.7364 0.0438 -0.6751
vn 0.9491 0.0459 -0.3116
vn 0.9975 0.0532 0.0467
vn 0.9160 0.0664 0.3956
vn -0.3205 0.0071 -0.9472
vn -0.3208 0.0172 -0.9470
vn 0.0376 0.0006 -0.9993
vn 0.0377 -0.0073 -0.9993
vn -0.3213 0.0381 -0.9462
vn 0.0370 0.0223 -0.9991
vn 0.3922 -0.0095 -0.9198
vn 0.3914 -0.0161 -0.9201
vn 0.3925 0.0128 -0.9197
vn -0.6804 0.0266 -0.7323
vn -0.6798 0.0393 -0.7323
vn -0.6790 0.0587 -0.7318
vn -0.6781 0.0839 -0.7302
vn -0.3222 0.0668 -0.9443
vn 0.0356 0.0536 -0.9979
vn 0.3916 0.0460 -0.9190
vn -0.9461 0.0652 0.3174
vn -0.9452 0.0824 0.3161
vn -0.9966 0.0722 -0.0396
vn -0.9976 0.0563 -0.0391
vn -0.9441 0.0977 0.3148
vn -0.9953 0.0881 -0.0403
vn -0.9977 0.0563 -0.0388
vn -0.9966 0.0722 -0.0395
vn -0.9188 0.0588 -0.3903
vn -0.9199 0.0441 -0.3897
vn -0.9953 0.0882 -0.0403
vn -0.9173 0.0761 -0.3909
vn -0.9426 0.1146 0.3137
vn -0.9935 0.1064 -0.0410
vn -0.9935 0.1064 -0.0411
vn -0.9154 0.0972 -0.3908
vn 0.3187 0.1206 0.9402
vn 0.3180 0.1429 0.9372
vn -0.0363 0.1472 0.9884
vn -0.0368 0.1275 0.9912
vn 0.3174 0.1629 0.9342
vn -0.0359 0.1646 0.9857
vn -0.3871 0.1527 0.9093
vn -0.3883 0.1343 0.9117
vn -0.3859 0.1689 0.9070
vn 0.6742 0.1105 0.7302
vn 0.6720 0.1366 0.7279
vn 0.6696 0.1603 0.7252
vn -0.7245 0.1720 0.6674
vn -0.7266 0.1561 0.6691
vn -0.7287 0.1381 0.6708
vn 0.9469 0.0817 -0.3110
vn 0.9434 0.1169 -0.3105
vn 0.9918 0.1188 0.0469
vn 0.9951 0.0864 0.0471
vn 0.9389 0.1492 -0.3103
vn 0.9878 0.1487 0.0461
vn 0.9103 0.1263 0.3943
vn 0.9134 0.0967 0.3953
vn 0.9068 0.1534 0.3928
vn 0.7343 0.0813 -0.6739
vn 0.7310 0.1179 -0.6721
vn 0.7268 0.1515 -0.6699
vn -0.3226 0.0980 -0.9415
vn -0.3225 0.1279 -0.9379
vn 0.0327 0.1205 -0.9922
vn 0.0341 0.0876 -0.9956
vn -0.3220 0.1550 -0.9340
vn 0.0316 0.1505 -0.9881
vn 0.3875 0.1180 -0.9143
vn 0.3898 0.0825 -0.9172
vn 0.3848 0.1504 -0.9107
vn -0.6765 0.1112 -0.7280
vn -0.6744 0.1374 -0.7255
vn -0.6720 0.1610 -0.7228
vn -0.9404 0.1336 0.3127
vn -0.9380 0.1519 0.3117
vn -0.9884 0.1462 -0.0418
vn -0.9911 0.1266 -0.0415
vn -0.9355 0.1680 0.3109
vn -0.9856 0.1636 -0.0419
vn -0.9911 0.1267 -0.0418
vn -0.9883 0.1463 -0.0424
vn -0.9098 0.1425 -0.3897
vn -0.9128 0.1203 -0.3903
vn -0.9856 0.1637 -0.0429
vn -0.9068 0.1624 -0.3890
vt 0.067016 0.128266
vt 0.067025 0.081027
vt 0.003897 0.080595
vt 0.003897 0.128085
vt 0.067487 0.043088
vt 0.003897 0.043088
vt 0.996079 0.128085
vt 0.996079 0.080595
vt 0.932951 0.081027
vt 0.932960 0.128266
vt 0.996079 0.043088
vt 0.932489 0.043088
vt 0.127850 0.181960
vt 0.127501 0.128427
vt 0.067121 0.181792
vt 0.126568 0.081424
vt 0.124077 0.043088
vt 0.117855 0.024858
vt 0.069735 0.021562
vt 0.003897 0.020630
vt 0.996079 0.020630
vt 0.930240 0.021562
vt 0.882121 0.024858
vt 0.875899 0.043088
vt 0.873407 0.081424
vt 0.872475 0.128427
vt 0.932854 0.181792
vt 0.872125 0.181960
vt 0.996079 0.181632
vt 0.003897 0.181632
vt 0.811941 0.128144
vt 0.813720 0.080879
vt 0.749987 0.080294
vt 0.748643 0.127846
vt 0.819067 0.043088
vt 0.753840 0.043088
vt 0.685836 0.080705
vt 0.685228 0.127988
vt 0.686655 0.043088
vt 0.811392 0.181729
vt 0.840550 0.015005
vt 0.767490 0.003916
vt 0.684787 0.013916
vt 0.630752 0.021655
vt 0.627378 0.043088
vt 0.625293 0.081127
vt 0.624422 0.128155
vt 0.684868 0.181646
vt 0.624081 0.181814
vt 0.748142 0.181510
vt 0.563572 0.127884
vt 0.564637 0.080594
vt 0.499988 0.080059
vt 0.499988 0.127638
vt 0.568086 0.043088
vt 0.499988 0.043088
vt 0.435339 0.080594
vt 0.436404 0.127884
vt 0.431889 0.043088
vt 0.563290 0.181589
vt 0.579387 0.013963
vt 0.499987 0.003916
vt 0.420589 0.013962
vt 0.369223 0.021655
vt 0.372597 0.043088
vt 0.374682 0.081127
vt 0.375553 0.128155
vt 0.436686 0.181589
vt 0.375894 0.181814
vt 0.499988 0.181398
vt 0.314747 0.127988
vt 0.314139 0.080705
vt 0.249988 0.080294
vt 0.251333 0.127846
vt 0.313321 0.043088
vt 0.246135 0.043088
vt 0.186256 0.080879
vt 0.188035 0.128144
vt 0.180908 0.043088
vt 0.315108 0.181646
vt 0.315188 0.013916
vt 0.232485 0.003916
vt 0.159425 0.015005
vt 0.188584 0.181729
vt 0.251834 0.181510
vt 0.910285 0.965452
vt 0.887675 0.996105
vt 0.996079 0.996105
vt 0.996079 0.965462
vt 0.694309 0.996105
vt 0.635428 0.973499
vt 0.578687 0.996105
vt 0.636937 0.996105
vt 0.003897 0.965462
vt 0.003897 0.996105
vt 0.112301 0.996105
vt 0.089691 0.965452
vt 0.363038 0.996105
vt 0.421288 0.996105
vt 0.364548 0.973499
vt 0.305666 0.996105
vt 0.874474 0.935519
vt 0.834121 0.959718
vt 0.926407 0.934782
vt 0.773424 0.996105
vt 0.695894 0.963132
vt 0.633407 0.949197
vt 0.573084 0.963391
vt 0.499988 0.996105
vt 0.426892 0.963391
vt 0.366569 0.949197
vt 0.304081 0.963132
vt 0.226551 0.996105
vt 0.165855 0.959718
vt 0.073569 0.934782
vt 0.125502 0.935519
vt 0.003897 0.933029
vt 0.996079 0.933029
vt 0.633015 0.009183
vt 0.654744 0.003916
vt 0.633163 0.003916
vt 0.611581 0.003916
vt 0.927621 0.003916
vt 0.927106 0.010286
vt 0.996079 0.009916
vt 0.996079 0.003916
vt 0.388393 0.003916
vt 0.366812 0.003916
vt 0.345230 0.003916
vt 0.366960 0.009183
vt 0.003897 0.003916
vt 0.003897 0.009916
vt 0.072870 0.010286
vt 0.072355 0.003916
vt 0.305167 0.925832
vt 0.310936 0.874991
vt 0.248787 0.877092
vt 0.240179 0.936556
vt 0.315165 0.811580
vt 0.253264 0.810557
vt 0.189640 0.868660
vt 0.183486 0.920176
vt 0.191965 0.805966
vt 0.369558 0.920962
vt 0.373236 0.873633
vt 0.375981 0.812034
vt 0.377241 0.740603
vt 0.317077 0.739457
vt 0.254993 0.737643
vt 0.192167 0.735283
vt 0.130623 0.732804
vt 0.131346 0.801192
vt 0.130848 0.860200
vt 0.128778 0.906407
vt 0.566012 0.927020
vt 0.564057 0.876882
vt 0.499988 0.881329
vt 0.499988 0.939078
vt 0.562927 0.813739
vt 0.499988 0.815300
vt 0.435919 0.876882
vt 0.433963 0.927020
vt 0.437049 0.813739
vt 0.630417 0.920962
vt 0.626739 0.873634
vt 0.623995 0.812034
vt 0.622734 0.740603
vt 0.562406 0.741433
vt 0.499988 0.741838
vt 0.437570 0.741433
vt 0.816490 0.920176
vt 0.810335 0.868660
vt 0.751189 0.877092
vt 0.759797 0.936556
vt 0.808011 0.805966
vt 0.746711 0.810557
vt 0.689040 0.874991
vt 0.694809 0.925832
vt 0.684811 0.811580
vt 0.871198 0.906407
vt 0.869127 0.860200
vt 0.868629 0.801192
vt 0.869353 0.732804
vt 0.807809 0.735283
vt 0.744982 0.737643
vt 0.682899 0.739457
vt 0.069916 0.900712
vt 0.069681 0.855711
vt 0.003897 0.854424
vt 0.003897 0.899006
vt 0.069441 0.798094
vt 0.003897 0.797093
vt 0.996079 0.899006
vt 0.996079 0.854424
vt 0.930295 0.855711
vt 0.930060 0.900712
vt 0.996079 0.797093
vt 0.930535 0.798094
vt 0.068940 0.730699
vt 0.003897 0.729873
vt 0.996079 0.729873
vt 0.931035 0.730699
vt 0.317414 0.663031
vt 0.317001 0.585158
vt 0.254027 0.584180
vt 0.254674 0.661655
vt 0.316464 0.508018
vt 0.253364 0.507343
vt 0.190801 0.583423
vt 0.191601 0.660264
vt 0.190090 0.506996
vt 0.377562 0.664114
vt 0.377322 0.585966
vt 0.376940 0.508603
vt 0.376605 0.434295
vt 0.316016 0.433857
vt 0.252848 0.433379
vt 0.189568 0.433288
vt 0.128613 0.433270
vt 0.129047 0.506750
vt 0.129670 0.582782
vt 0.130415 0.658942
vt 0.562338 0.664579
vt 0.562492 0.586197
vt 0.499988 0.586183
vt 0.499988 0.664686
vt 0.562700 0.508659
vt 0.499988 0.508569
vt 0.437484 0.586197
vt 0.437638 0.664579
vt 0.437275 0.508659
vt 0.622414 0.664114
vt 0.622654 0.585966
vt 0.623035 0.508603
vt 0.623370 0.434295
vt 0.562883 0.434224
vt 0.499988 0.434081
vt 0.437092 0.434224
vt 0.808375 0.660264
vt 0.809175 0.583422
vt 0.745949 0.584180
vt 0.745302 0.661655
vt 0.809886 0.506996
vt 0.746612 0.507343
vt 0.682975 0.585158
vt 0.682561 0.663031
vt 0.683512 0.508018
vt 0.869561 0.658942
vt 0.870306 0.582782
vt 0.870929 0.506750
vt 0.871362 0.433270
vt 0.810408 0.433288
vt 0.747127 0.433379
vt 0.683960 0.433857
vt 0.068553 0.657697
vt 0.068113 0.582016
vt 0.003897 0.581619
vt 0.003897 0.657139
vt 0.067761 0.506235
vt 0.003897 0.505923
vt 0.996079 0.657139
vt 0.996079 0.581619
vt 0.931863 0.582016
vt 0.931422 0.657697
vt 0.996079 0.505923
vt 0.932215 0.506235
vt 0.067522 0.432883
vt 0.003897 0.432615
vt 0.996079 0.432615
vt 0.932453 0.432883
vt 0.315700 0.364448
vt 0.315483 0.299660
vt 0.252256 0.299397
vt 0.252494 0.364097
vt 0.315313 0.238911
vt 0.252068 0.238716
vt 0.188988 0.299538
vt 0.189219 0.364154
vt 0.188809 0.238904
vt 0.376362 0.364792
vt 0.376192 0.299937
vt 0.376058 0.239133
vt 0.128016 0.239121
vt 0.128153 0.299718
vt 0.128334 0.364265
vt 0.563019 0.364640
vt 0.563114 0.299740
vt 0.499988 0.299551
vt 0.499988 0.364466
vt 0.563190 0.238914
vt 0.499988 0.238721
vt 0.436862 0.299740
vt 0.436957 0.364640
vt 0.436786 0.238914
vt 0.623614 0.364792
vt 0.623784 0.299937
vt 0.623917 0.239133
vt 0.810756 0.364154
vt 0.810988 0.299538
vt 0.747720 0.299397
vt 0.747481 0.364097
vt 0.811167 0.238904
vt 0.747908 0.238716
vt 0.684492 0.299660
vt 0.684276 0.364448
vt 0.684662 0.238911
vt 0.871642 0.364265
vt 0.871823 0.299718
vt 0.871960 0.239121
vt 0.067372 0.363951
vt 0.067275 0.299455
vt 0.003897 0.299239
vt 0.003897 0.363710
vt 0.067203 0.238903
vt 0.003897 0.238713
vt 0.996079 0.363710
vt 0.996079 0.299239
vt 0.932700 0.299455
vt 0.932604 0.363951
vt 0.996079 0.238713
vt 0.932773 0.238903
s 1
usemtl Flame
f 142/1/1 143/2/2 148/3/3
f 142/1/1 148/3/3 146/4/4
f 143/2/2 144/5/5 149/6/6
f 143/2/2 149/6/6 148/3/3
f 145/7/7 147/8/8 152/9/9
f 145/7/7 152/9/9 151/10/10
f 147/8/8 150/11/11 153/12/12
f 147/8/8 153/12/12 152/9/9
f 17/13/13 25/14/14 142/1/1
f 17/13/13 142/1/1 138/15/15
f 25/14/14 26/16/16 143/2/2
f 25/14/14 143/2/2 142/1/1
f 26/16/16 27/17/17 144/5/5
f 26/16/16 144/5/5 143/2/2
f 27/17/17 2/18/18 28/19/19
f 27/17/17 28/19/19 144/5/5
f 144/5/5 28/19/19 29/20/20
f 144/5/5 29/20/20 149/6/6
f 150/11/11 30/21/21 31/22/22
f 150/11/11 31/22/22 153/12/12
f 153/12/12 31/22/22 4/23/23
f 153/12/12 4/23/23 120/24/24
f 152/9/9 153/12/12 120/24/24
f 152/9/9 120/24/24 121/25/25
f 151/10/10 152/9/9 121/25/25
f 151/10/10 121/25/25 122/26/26
f 141/27/27 151/10/10 122/26/26
f 141/27/27 122/26/26 18/28/28
f 139/29/29 145/7/7 151/10/10
f 139/29/29 151/10/10 141/27/27
f 138/15/15 142/1/1 146/4/4
f 138/15/15 146/4/4 140/30/30
f 154/31/31 155/32/32 158/33/33
f 154/31/31 158/33/33 157/34/34
f 155/32/32 156/35/35 159/36/36
f 155/32/32 159/36/36 158/33/33
f 157/34/34 158/33/33 161/37/37
f 157/34/34 161/37/37 160/38/38
f 158/33/33 159/36/36 162/39/39
f 158/33/33 162/39/39 161/37/37
f 18/28/28 122/26/26 154/31/31
f 18/28/28 154/31/31 135/40/40
f 122/26/26 121/25/25 155/32/32
f 122/26/26 155/32/32 154/31/31
f 121/25/25 120/24/24 156/35/35
f 121/25/25 156/35/35 155/32/32
f 120/24/24 4/23/23 38/41/41
f 120/24/24 38/41/41 156/35/35
f 156/35/35 38/41/41 39/42/42
f 156/35/35 39/42/42 159/36/36
f 159/36/36 39/42/42 42/43/43
f 159/36/36 42/43/43 162/39/39
f 162/39/39 42/43/43 8/44/44
f 162/39/39 8/44/44 123/45/45
f 161/37/37 162/39/39 123/45/45
f 161/37/37 123/45/45 124/46/46
f 160/38/38 161/37/37 124/46/46
f 160/38/38 124/46/46 125/47/47
f 137/48/48 160/38/38 125/47/47
f 137/48/48 125/47/47 19/49/49
f 136/50/50 157/34/34 160/38/38
f 136/50/50 160/38/38 137/48/48
f 135/40/40 154/31/31 157/34/34
f 135/40/40 157/34/34 136/50/50
f 163/51/51 164/52/52 167/53/53
f 163/51/51 167/53/53 166/54/54
f 164/52/52 165/55/55 168/56/56
f 164/52/52 168/56/56 167/53/53
f 166/54/54 167/53/53 170/57/57
f 166/54/54 170/57/57 169/58/58
f 167/53/53 168/56/56 171/59/59
f 167/53/53 171/59/59 170/57/57
f 19/49/49 125/47/47 163/51/51
f 19/49/49 163/51/51 132/60/60
f 125/47/47 124/46/46 164/52/52
f 125/47/47 164/52/52 163/51/51
f 124/46/46 123/45/45 165/55/55
f 124/46/46 165/55/55 164/52/52
f 123/45/45 8/44/44 51/61/61
f 123/45/45 51/61/61 165/55/55
f 165/55/55 51/61/61 53/62/62
f 165/55/55 53/62/62 168/56/56
f 168/56/56 53/62/62 55/63/63
f 168/56/56 55/63/63 171/59/59
f 171/59/59 55/63/63 6/64/64
f 171/59/59 6/64/64 126/65/65
f 170/57/57 171/59/59 126/65/65
f 170/57/57 126/65/65 127/66/66
f 169/58/58 170/57/57 127/66/66
f 169/58/58 127/66/66 128/67/67
f 134/68/68 169/58/58 128/67/67
f 134/68/68 128/67/67 20/69/69
f 133/70/70 166/54/54 169/58/58
f 133/70/70 169/58/58 134/68/68
f 132/60/60 163/51/51 166/54/54
f 132/60/60 166/54/54 133/70/70
f 172/71/71 173/72/72 176/73/73
f 172/71/71 176/73/73 175/74/74
f 173/72/72 174/75/75 177/76/76
f 173/72/72 177/76/76 176/73/73
f 175/74/74 176/73/73 179/77/77
f 175/74/74 179/77/77 178/78/78
f 176/73/73 177/76/76 180/79/79
f 176/73/73 180/79/79 179/77/77
f 20/69/69 128/67/67 172/71/71
f 20/69/69 172/71/71 129/80/80
f 128/67/67 127/66/66 173/72/72
f 128/67/67 173/72/72 172/71/71
f 127/66/66 126/65/65 174/75/75
f 127/66/66 174/75/75 173/72/72
f 126/65/65 6/64/64 64/81/81
f 126/65/65 64/81/81 174/75/75
f 174/75/75 64/81/81 65/82/82
f 174/75/75 65/82/82 177/76/76
f 177/76/76 65/82/82 66/83/83
f 177/76/76 66/83/83 180/79/79
f 180/79/79 66/83/83 2/18/18
f 180/79/79 2/18/18 27/17/17
f 179/77/77 180/79/79 27/17/17
f 179/77/77 27/17/17 26/16/16
f 178/78/78 179/77/77 26/16/16
f 178/78/78 26/16/16 25/14/14
f 131/84/84 178/78/78 25/14/14
f 131/84/84 25/14/14 17/13/13
f 130/85/85 175/74/74 178/78/78
f 130/85/85 178/78/78 131/84/84
f 129/80/80 172/71/71 175/74/74
f 129/80/80 175/74/74 130/85/85
f 181/86/86 183/87/87 188/88/88
f 181/86/86 188/88/88 185/89/89
f 182/90/90 184/91/91 191/92/92
f 182/90/90 191/92/92 187/93/93
f 186/94/94 189/95/95 194/96/96
f 186/94/94 194/96/96 193/97/97
f 190/98/98 192/99/99 196/100/100
f 190/98/98 196/100/100 195/101/101
f 3/102/102 37/103/103 181/86/86
f 3/102/102 181/86/86 21/104/104
f 37/103/103 36/105/105 183/87/87
f 37/103/103 183/87/87 181/86/86
f 36/105/105 35/106/106 184/91/91
f 36/105/105 184/91/91 182/90/90
f 35/106/106 7/107/107 50/108/108
f 35/106/106 50/108/108 184/91/91
f 184/91/91 50/108/108 47/109/109
f 184/91/91 47/109/109 191/92/92
f 192/99/99 49/109/110 46/110/111
f 192/99/99 46/110/111 196/100/100
f 196/100/100 46/110/111 5/111/112
f 196/100/100 5/111/112 63/112/113
f 195/101/101 196/100/100 63/112/113
f 195/101/101 63/112/113 61/113/114
f 193/97/97 194/96/96 60/113/115
f 193/97/97 60/113/115 59/114/116
f 24/115/117 193/97/97 59/114/116
f 24/115/117 59/114/116 1/116/118
f 22/117/119 186/94/94 193/97/97
f 22/117/119 193/97/97 24/115/117
f 21/104/104 181/86/86 185/89/89
f 21/104/104 185/89/89 23/118/120
f 197/119/121 198/120/122 203/121/123
f 197/119/121 203/121/123 201/122/124
f 199/123/125 200/124/126 208/125/127
f 199/123/125 208/125/127 204/126/128
f 202/127/129 206/128/130 211/129/131
f 202/127/129 211/129/131 209/130/132
f 205/131/133 207/132/134 212/133/135
f 205/131/133 212/133/135 210/134/136
f 8/44/44 42/43/43 197/119/121
f 8/44/44 197/119/121 51/61/61
f 42/43/43 40/42/137 198/120/122
f 42/43/43 198/120/122 197/119/121
f 41/42/138 38/41/41 200/124/126
f 41/42/138 200/124/126 199/123/125
f 38/41/41 4/23/23 31/22/22
f 38/41/41 31/22/22 200/124/126
f 200/124/126 31/22/22 30/21/21
f 200/124/126 30/21/21 208/125/127
f 207/132/134 29/20/20 28/19/19
f 207/132/134 28/19/19 212/133/135
f 212/133/135 28/19/19 2/18/18
f 212/133/135 2/18/18 66/83/83
f 210/134/136 212/133/135 66/83/83
f 210/134/136 66/83/83 65/82/82
f 209/130/132 211/129/131 65/82/82
f 209/130/132 65/82/82 64/81/81
f 55/63/63 209/130/132 64/81/81
f 55/63/63 64/81/81 6/64/64
f 54/62/139 202/127/129 209/130/132
f 54/62/139 209/130/132 55/63/63
f 51/61/61 197/119/121 201/122/124
f 51/61/61 201/122/124 52/62/140
f 213/135/141 214/136/142 217/137/143
f 213/135/141 217/137/143 216/138/144
f 214/136/142 215/139/145 218/140/146
f 214/136/142 218/140/146 217/137/143
f 216/138/144 217/137/143 220/141/147
f 216/138/144 220/141/147 219/142/148
f 217/137/143 218/140/146 221/143/149
f 217/137/143 221/143/149 220/141/147
f 5/111/112 58/144/150 213/135/141
f 5/111/112 213/135/141 63/112/113
f 58/144/150 57/145/151 214/136/142
f 58/144/150 214/136/142 213/135/141
f 57/145/151 56/146/152 215/139/145
f 57/145/151 215/139/145 214/136/142
f 56/146/152 12/147/153 79/148/154
f 56/146/152 79/148/154 215/139/145
f 215/139/145 79/148/154 80/149/155
f 215/139/145 80/149/155 218/140/146
f 218/140/146 80/149/155 81/150/156
f 218/140/146 81/150/156 221/143/149
f 221/143/149 81/150/156 9/151/157
f 221/143/149 9/151/157 69/152/158
f 220/141/147 221/143/149 69/152/158
f 220/141/147 69/152/158 68/153/159
f 219/142/148 220/141/147 68/153/159
f 219/142/148 68/153/159 67/154/160
f 59/114/116 219/142/148 67/154/160
f 59/114/116 67/154/160 1/116/118
f 62/113/161 216/138/144 219/142/148
f 62/113/161 219/142/148 59/114/116
f 63/112/113 213/135/141 216/138/144
f 63/112/113 216/138/144 62/113/161
f 222/155/162 223/156/163 226/157/164
f 222/155/162 226/157/164 225/158/165
f 223/156/163 224/159/166 227/160/167
f 223/156/163 227/160/167 226/157/164
f 225/158/165 226/157/164 229/161/168
f 225/158/165 229/161/168 228/162/169
f 226/157/164 227/160/167 230/163/170
f 226/157/164 230/163/170 229/161/168
f 7/107/107 45/164/171 222/155/162
f 7/107/107 222/155/162 50/108/108
f 45/164/171 44/165/172 223/156/163
f 45/164/171 223/156/163 222/155/162
f 44/165/172 43/166/173 224/159/166
f 44/165/172 224/159/166 223/156/163
f 43/166/173 11/167/174 82/168/175
f 43/166/173 82/168/175 224/159/166
f 224/159/166 82/168/175 83/169/176
f 224/159/166 83/169/176 227/160/167
f 227/160/167 83/169/176 84/170/177
f 227/160/167 84/170/177 230/163/170
f 230/163/170 84/170/177 12/147/153
f 230/163/170 12/147/153 56/146/152
f 229/161/168 230/163/170 56/146/152
f 229/161/168 56/146/152 57/145/151
f 228/162/169 229/161/168 57/145/151
f 228/162/169 57/145/151 58/144/150
f 46/110/111 228/162/169 58/144/150
f 46/110/111 58/144/150 5/111/112
f 48/109/178 225/158/165 228/162/169
f 48/109/178 228/162/169 46/110/111
f 50/108/108 222/155/162 225/158/165
f 50/108/108 225/158/165 48/109/178
f 231/171/179 232/172/180 235/173/181
f 231/171/179 235/173/181 234/174/182
f 232/172/180 233/175/183 236/176/184
f 232/172/180 236/176/184 235/173/181
f 234/174/182 235/173/181 238/177/185
f 234/174/182 238/177/185 237/178/186
f 235/173/181 236/176/184 239/179/187
f 235/173/181 239/179/187 238/177/185
f 3/102/102 34/180/188 231/171/179
f 3/102/102 231/171/179 37/103/103
f 34/180/188 33/181/189 232/172/180
f 34/180/188 232/172/180 231/171/179
f 33/181/189 32/182/190 233/175/183
f 33/181/189 233/175/183 232/172/180
f 32/182/190 10/183/191 85/184/192
f 32/182/190 85/184/192 233/175/183
f 233/175/183 85/184/192 86/185/193
f 233/175/183 86/185/193 236/176/184
f 236/176/184 86/185/193 87/186/194
f 236/176/184 87/186/194 239/179/187
f 239/179/187 87/186/194 11/167/174
f 239/179/187 11/167/174 43/166/173
f 238/177/185 239/179/187 43/166/173
f 238/177/185 43/166/173 44/165/172
f 237/178/186 238/177/185 44/165/172
f 237/178/186 44/165/172 45/164/171
f 35/106/106 237/178/186 45/164/171
f 35/106/106 45/164/171 7/107/107
f 36/105/105 234/174/182 237/178/186
f 36/105/105 237/178/186 35/106/106
f 37/103/103 231/171/179 234/174/182
f 37/103/103 234/174/182 36/105/105
f 240/187/195 241/188/196 245/189/197
f 240/187/195 245/189/197 243/190/198
f 241/188/196 242/191/199 247/192/200
f 241/188/196 247/192/200 245/189/197
f 244/193/201 246/194/202 250/195/203
f 244/193/201 250/195/203 249/196/204
f 246/194/202 248/197/205 251/198/206
f 246/194/202 251/198/206 250/195/203
f 1/116/118 67/154/160 240/187/195
f 1/116/118 240/187/195 24/115/117
f 67/154/160 68/153/159 241/188/196
f 67/154/160 241/188/196 240/187/195
f 68/153/159 69/152/158 242/191/199
f 68/153/159 242/191/199 241/188/196
f 69/152/158 9/151/157 88/199/207
f 69/152/158 88/199/207 242/191/199
f 242/191/199 88/199/207 90/200/208
f 242/191/199 90/200/208 247/192/200
f 248/197/205 89/201/209 91/202/210
f 248/197/205 91/202/210 251/198/206
f 251/198/206 91/202/210 10/183/191
f 251/198/206 10/183/191 32/182/190
f 250/195/203 251/198/206 32/182/190
f 250/195/203 32/182/190 33/181/189
f 249/196/204 250/195/203 33/181/189
f 249/196/204 33/181/189 34/180/188
f 21/104/104 249/196/204 34/180/188
f 21/104/104 34/180/188 3/102/102
f 23/118/120 244/193/201 249/196/204
f 23/118/120 249/196/204 21/104/104
f 24/115/117 240/187/195 243/190/198
f 24/115/117 243/190/198 22/117/119
f 252/203/211 253/204/212 256/205/213
f 252/203/211 256/205/213 255/206/214
f 253/204/212 254/207/215 257/208/216
f 253/204/212 257/208/216 256/205/213
f 255/206/214 256/205/213 259/209/217
f 255/206/214 259/209/217 258/210/218
f 256/205/213 257/208/216 260/211/219
f 256/205/213 260/211/219 259/209/217
f 12/147/153 78/212/220 252/203/211
f 12/147/153 252/203/211 79/148/154
f 78/212/220 77/213/221 253/204/212
f 78/212/220 253/204/212 252/203/211
f 77/213/221 76/214/222 254/207/215
f 77/213/221 254/207/215 253/204/212
f 76/214/222 16/215/223 104/216/224
f 76/214/222 104/216/224 254/207/215
f 254/207/215 104/216/224 105/217/225
f 254/207/215 105/217/225 257/208/216
f 257/208/216 105/217/225 106/218/226
f 257/208/216 106/218/226 260/211/219
f 260/211/219 106/218/226 13/219/227
f 260/211/219 13/219/227 94/220/228
f 259/209/217 260/211/219 94/220/228
f 259/209/217 94/220/228 93/221/229
f 258/210/218 259/209/217 93/221/229
f 258/210/218 93/221/229 92/222/230
f 81/150/156 258/210/218 92/222/230
f 81/150/156 92/222/230 9/151/157
f 80/149/155 255/206/214 258/210/218
f 80/149/155 258/210/218 81/150/156
f 79/148/154 252/203/211 255/206/214
f 79/148/154 255/206/214 80/149/155
f 261/223/231 262/224/232 265/225/233
f 261/223/231 265/225/233 264/226/234
f 262/224/232 263/227/235 266/228/236
f 262/224/232 266/228/236 265/225/233
f 264/226/234 265/225/233 268/229/237
f 264/226/234 268/229/237 267/230/238
f 265/225/233 266/228/236 269/231/239
f 265/225/233 269/231/239 268/229/237
f 11/167/174 75/232/240 261/223/231
f 11/167/174 261/223/231 82/168/175
f 75/232/240 74/233/241 262/224/232
f 75/232/240 262/224/232 261/223/231
f 74/233/241 73/234/242 263/227/235
f 74/233/241 263/227/235 262/224/232
f 73/234/242 15/235/243 107/236/244
f 73/234/242 107/236/244 263/227/235
f 263/227/235 107/236/244 108/237/245
f 263/227/235 108/237/245 266/228/236
f 266/228/236 108/237/245 109/238/246
f 266/228/236 109/238/246 269/231/239
f 269/231/239 109/238/246 16/215/223
f 269/231/239 16/215/223 76/214/222
f 268/229/237 269/231/239 76/214/222
f 268/229/237 76/214/222 77/213/221
f 267/230/238 268/229/237 77/213/221
f 267/230/238 77/213/221 78/212/220
f 84/170/177 267/230/238 78/212/220
f 84/170/177 78/212/220 12/147/153
f 83/169/176 264/226/234 267/230/238
f 83/169/176 267/230/238 84/170/177
f 82/168/175 261/223/231 264/226/234
f 82/168/175 264/226/234 83/169/176
f 270/239/247 271/240/248 274/241/249
f 270/239/247 274/241/249 273/242/250
f 271/240/248 272/243/251 275/244/252
f 271/240/248 275/244/252 274/241/249
f 273/242/250 274/241/249 277/245/253
f 273/242/250 277/245/253 276/246/254
f 274/241/249 275/244/252 278/247/255
f 274/241/249 278/247/255 277/245/253
f 10/183/191 72/248/256 270/239/247
f 10/183/191 270/239/247 85/184/192
f 72/248/256 71/249/257 271/240/248
f 72/248/256 271/240/248 270/239/247
f 71/249/257 70/250/258 272/243/251
f 71/249/257 272/243/251 271/240/248
f 70/250/258 14/251/259 110/252/260
f 70/250/258 110/252/260 272/243/251
f 272/243/251 110/252/260 111/253/261
f 272/243/251 111/253/261 275/244/252
f 275/244/252 111/253/261 112/254/262
f 275/244/252 112/254/262 278/247/255
f 278/247/255 112/254/262 15/235/243
f 278/247/255 15/235/243 73/234/242
f 277/245/253 278/247/255 73/234/242
f 277/245/253 73/234/242 74/233/241
f 276/246/254 277/245/253 74/233/241
f 276/246/254 74/233/241 75/232/240
f 87/186/194 276/246/254 75/232/240
f 87/186/194 75/232/240 11/167/174
f 86/185/193 273/242/250 276/246/254
f 86/185/193 276/246/254 87/186/194
f 85/184/192 270/239/247 273/242/250
f 85/184/192 273/242/250 86/185/193
f 279/255/263 280/256/264 285/257/265
f 279/255/263 285/257/265 283/258/266
f 280/256/264 281/259/267 287/260/268
f 280/256/264 287/260/268 285/257/265
f 282/261/269 284/262/270 289/263/271
f 282/261/269 289/263/271 288/264/272
f 284/262/270 286/265/273 290/266/274
f 284/262/270 290/266/274 289/263/271
f 9/151/157 92/222/230 279/255/263
f 9/151/157 279/255/263 88/199/207
f 92/222/230 93/221/229 280/256/264
f 92/222/230 280/256/264 279/255/263
f 93/221/229 94/220/228 281/259/267
f 93/221/229 281/259/267 280/256/264
f 94/220/228 13/219/227 113/267/275
f 94/220/228 113/267/275 281/259/267
f 281/259/267 113/267/275 115/268/276
f 281/259/267 115/268/276 287/260/268
f 286/265/273 114/269/277 116/270/278
f 286/265/273 116/270/278 290/266/274
f 290/266/274 116/270/278 14/251/259
f 290/266/274 14/251/259 70/250/258
f 289/263/271 290/266/274 70/250/258
f 289/263/271 70/250/258 71/249/257
f 288/264/272 289/263/271 71/249/257
f 288/264/272 71/249/257 72/248/256
f 91/202/210 288/264/272 72/248/256
f 91/202/210 72/248/256 10/183/191
f 89/201/209 282/261/269 288/264/272
f 89/201/209 288/264/272 91/202/210
f 88/199/207 279/255/263 283/258/266
f 88/199/207 283/258/266 90/200/208
f 291/271/279 292/272/280 295/273/281
f 291/271/279 295/273/281 294/274/282
f 292/272/280 293/275/283 296/276/284
f 292/272/280 296/276/284 295/273/281
f 294/274/282 295/273/281 298/277/285
f 294/274/282 298/277/285 297/278/286
f 295/273/281 296/276/284 299/279/287
f 295/273/281 299/279/287 298/277/285
f 16/215/223 103/280/288 291/271/279
f 16/215/223 291/271/279 104/216/224
f 103/280/288 102/281/289 292/272/280
f 103/280/288 292/272/280 291/271/279
f 102/281/289 101/282/290 293/275/283
f 102/281/289 293/275/283 292/272/280
f 101/282/290 20/69/69 129/80/80
f 101/282/290 129/80/80 293/275/283
f 293/275/283 129/80/80 130/85/85
f 293/275/283 130/85/85 296/276/284
f 296/276/284 130/85/85 131/84/84
f 296/276/284 131/84/84 299/279/287
f 299/279/287 131/84/84 17/13/13
f 299/279/287 17/13/13 119/283/291
f 298/277/285 299/279/287 119/283/291
f 298/277/285 119/283/291 118/284/292
f 297/278/286 298/277/285 118/284/292
f 297/278/286 118/284/292 117/285/293
f 106/218/226 297/278/286 117/285/293
f 106/218/226 117/285/293 13/219/227
f 105/217/225 294/274/282 297/278/286
f 105/217/225 297/278/286 106/218/226
f 104/216/224 291/271/279 294/274/282
f 104/216/224 294/274/282 105/217/225
f 300/286/294 301/287/295 304/288/296
f 300/286/294 304/288/296 303/289/297
f 301/287/295 302/290/298 305/291/299
f 301/287/295 305/291/299 304/288/296
f 303/289/297 304/288/296 307/292/300
f 303/289/297 307/292/300 306/293/301
f 304/288/296 305/291/299 308/294/302
f 304/288/296 308/294/302 307/292/300
f 15/235/243 100/295/303 300/286/294
f 15/235/243 300/286/294 107/236/244
f 100/295/303 99/296/304 301/287/295
f 100/295/303 301/287/295 300/286/294
f 99/296/304 98/297/305 302/290/298
f 99/296/304 302/290/298 301/287/295
f 98/297/305 19/49/49 132/60/60
f 98/297/305 132/60/60 302/290/298
f 302/290/298 132/60/60 133/70/70
f 302/290/298 133/70/70 305/291/299
f 305/291/299 133/70/70 134/68/68
f 305/291/299 134/68/68 308/294/302
f 308/294/302 134/68/68 20/69/69
f 308/294/302 20/69/69 101/282/290
f 307/292/300 308/294/302 101/282/290
f 307/292/300 101/282/290 102/281/289
f 306/293/301 307/292/300 102/281/289
f 306/293/301 102/281/289 103/280/288
f 109/238/246 306/293/301 103/280/288
f 109/238/246 103/280/288 16/215/223
f 108/237/245 303/289/297 306/293/301
f 108/237/245 306/293/301 109/238/246
f 107/236/244 300/286/294 303/289/297
f 107/236/244 303/289/297 108/237/245
f 309/298/306 310/299/307 313/300/308
f 309/298/306 313/300/308 312/301/309
f 310/299/307 311/302/310 314/303/311
f 310/299/307 314/303/311 313/300/308
f 312/301/309 313/300/308 316/304/312
f 312/301/309 316/304/312 315/305/313
f 313/300/308 314/303/311 317/306/314
f 313/300/308 317/306/314 316/304/312
f 14/251/259 97/307/315 309/298/306
f 14/251/259 309/298/306 110/252/260
f 97/307/315 96/308/316 310/299/307
f 97/307/315 310/299/307 309/298/306
f 96/308/316 95/309/317 311/302/310
f 96/308/316 311/302/310 310/299/307
f 95/309/317 18/28/28 135/40/40
f 95/309/317 135/40/40 311/302/310
f 311/302/310 135/40/40 136/50/50
f 311/302/310 136/50/50 314/303/311
f 314/303/311 136/50/50 137/48/48
f 314/303/311 137/48/48 317/306/314
f 317/306/314 137/48/48 19/49/49
f 317/306/314 19/49/49 98/297/305
f 316/304/312 317/306/314 98/297/305
f 316/304/312 98/297/305 99/296/304
f 315/305/313 316/304/312 99/296/304
f 315/305/313 99/296/304 100/295/303
f 112/254/262 315/305/313 100/295/303
f 112/254/262 100/295/303 15/235/243
f 111/253/261 312/301/309 315/305/313
f 111/253/261 315/305/313 112/254/262
f 110/252/260 309/298/306 312/301/309
f 110/252/260 312/301/309 111/253/261
f 318/310/318 319/311/319 324/312/320
f 318/310/318 324/312/320 322/313/321
f 319/311/319 320/314/322 326/315/323
f 319/311/319 326/315/323 324/312/320
f 321/316/324 323/317/325 328/318/326
f 321/316/324 328/318/326 327/319/327
f 323/317/325 325/320/328 329/321/329
f 323/317/325 329/321/329 328/318/326
f 13/219/227 117/285/293 318/310/318
f 13/219/227 318/310/318 113/267/275
f 117/285/293 118/284/292 319/311/319
f 117/285/293 319/311/319 318/310/318
f 118/284/292 119/283/291 320/314/322
f 118/284/292 320/314/322 319/311/319
f 119/283/291 17/13/13 138/15/15
f 119/283/291 138/15/15 320/314/322
f 320/314/322 138/15/15 140/30/30
f 320/314/322 140/30/30 326/315/323
f 325/320/328 139/29/29 141/27/27
f 325/320/328 141/27/27 329/321/329
f 329/321/329 141/27/27 18/28/28
f 329/321/329 18/28/28 95/309/317
f 328/318/326 329/321/329 95/309/317
f 328/318/326 95/309/317 96/308/316
f 327/319/327 328/318/326 96/308/316
f 327/319/327 96/308/316 97/307/315
f 116/270/278 327/319/327 97/307/315
f 116/270/278 97/307/315 14/251/259
f 114/269/277 321/316/324 327/319/327
f 114/269/277 327/319/327 116/270/278
f 113/267/275 318/310/318 322/313/321
f 113/267/275 322/313/321 115/268/276
